<svg xmlns="http://www.w3.org/2000/svg" viewBox="0 0 64 64" fill="none">
  <!-- Background circle -->
  <circle cx="32" cy="32" r="32" fill="#1a56db"/>
  <!-- Open book shape -->
  <path d="M14 20 C14 20 22 18 32 22 C42 18 50 20 50 20 L50 44 C50 44 42 42 32 46 C22 42 14 44 14 44 Z"
        fill="white" fill-opacity="0.15" stroke="white" stroke-width="1.5" stroke-linejoin="round"/>
  <!-- Left page -->
  <path d="M14 20 L14 44 C14 44 22 42 32 46 L32 22 C22 18 14 20 14 20 Z"
        fill="white" fill-opacity="0.25"/>
  <!-- Spine line -->
  <line x1="32" y1="22" x2="32" y2="46" stroke="white" stroke-width="1.5" stroke-dasharray="2 2"/>
  <!-- Left page lines -->
  <line x1="19" y1="28" x2="29" y2="30" stroke="white" stroke-width="1.2" stroke-linecap="round" opacity="0.7"/>
  <line x1="19" y1="33" x2="29" y2="35" stroke="white" stroke-width="1.2" stroke-linecap="round" opacity="0.7"/>
  <line x1="19" y1="38" x2="29" y2="40" stroke="white" stroke-width="1.2" stroke-linecap="round" opacity="0.7"/>
  <!-- Right page lines -->
  <line x1="35" y1="30" x2="45" y2="28" stroke="white" stroke-width="1.2" stroke-linecap="round" opacity="0.7"/>
  <line x1="35" y1="35" x2="45" y2="33" stroke="white" stroke-width="1.2" stroke-linecap="round" opacity="0.7"/>
  <line x1="35" y1="40" x2="45" y2="38" stroke="white" stroke-width="1.2" stroke-linecap="round" opacity="0.7"/>
</svg>
